<?xml version="1.0" encoding="iso-8859-1"?>
<!-- Generator: Adobe Illustrator 19.0.0, SVG Export Plug-In . SVG Version: 6.00 Build 0)  -->
<svg version="1.1" id="Layer_1" xmlns="http://www.w3.org/2000/svg" xmlns:xlink="http://www.w3.org/1999/xlink" x="0px" y="0px"
	 viewBox="0 0 512.076 512.076" style="enable-background:new 0 0 512.076 512.076;" xml:space="preserve">
<circle style="fill:#2D4452;" cx="256.038" cy="256" r="256"/>
<path style="fill:#233540;" d="M491.482,356.144c-0.18-0.716-0.452-1.404-0.828-2.052c-0.176-0.712-0.452-1.396-0.828-2.048
	c-0.176-0.708-0.452-1.392-0.824-2.04c-0.176-0.716-0.452-1.408-0.832-2.064c-0.176-0.712-0.452-1.4-0.828-2.048
	c-0.176-0.712-0.452-1.396-0.828-2.048c-0.176-0.712-0.452-1.396-0.828-2.048c-0.176-0.716-0.452-1.404-0.832-2.056
	c-0.176-0.712-0.448-1.396-0.828-2.048c-0.172-0.708-0.448-1.392-0.824-2.04c-0.176-0.716-0.452-1.408-0.832-2.064
	c-0.176-0.712-0.448-1.4-0.828-2.048c-0.176-0.712-0.448-1.396-0.828-2.048c-0.176-0.712-0.448-1.404-0.828-2.048
	c-0.176-0.716-0.448-1.4-0.828-2.052c-0.176-0.712-0.448-1.4-0.824-2.048c-0.176-0.708-0.452-1.388-0.828-2.036
	c-0.172-0.716-0.452-1.412-0.828-2.068c-0.18-0.712-0.452-1.4-0.828-2.048c-0.18-0.712-0.452-1.396-0.828-2.048
	c-0.18-0.712-0.452-1.404-0.828-2.048c-0.18-0.716-0.452-1.4-0.828-2.052c-0.18-0.712-0.452-1.4-0.828-2.048
	c-0.18-0.712-0.452-1.396-0.828-2.048c-0.172-0.708-0.452-1.396-0.828-2.04c-0.172-0.72-0.452-1.408-0.828-2.064
	c-0.18-0.712-0.452-1.396-0.828-2.048c-0.18-0.712-0.456-1.404-0.836-2.052c-0.172-0.716-0.448-1.4-0.828-2.052
	c-0.172-0.712-0.448-1.4-0.828-2.048c-0.172-0.712-0.448-1.396-0.828-2.048c-0.172-0.712-0.448-1.396-0.82-2.044
	c-0.18-0.716-0.452-1.404-0.832-2.06c-0.176-0.712-0.452-1.4-0.828-2.048c-0.176-0.712-0.452-1.4-0.828-2.048
	c-0.176-0.716-0.452-1.404-0.828-2.052c-0.176-0.712-0.452-1.396-0.828-2.044c-0.176-0.716-0.456-1.404-0.832-2.056
	c-0.172-0.712-0.452-1.396-0.824-2.044c-0.176-0.716-0.456-1.404-0.832-2.06c-0.176-0.712-0.452-1.4-0.828-2.048
	c-0.176-0.712-0.452-1.4-0.828-2.048c-0.176-0.716-0.452-1.404-0.828-2.052c-0.176-0.712-0.452-1.396-0.828-2.048
	c-0.176-0.712-0.452-1.4-0.828-2.048c-0.176-0.712-0.452-1.396-0.824-2.044c-0.176-0.716-0.448-1.404-0.828-2.056
	c-0.176-0.712-0.456-1.4-0.832-2.052c-0.176-0.712-0.452-1.4-0.828-2.048c-0.176-0.716-0.452-1.404-0.828-2.052
	c-0.176-0.712-0.452-1.396-0.828-2.048c-0.172-0.712-0.452-1.4-0.828-2.048c-0.172-0.716-0.452-1.4-0.828-2.052
	c-0.172-0.708-0.452-1.392-0.82-2.04c-0.18-0.716-0.46-1.404-0.836-2.06c-0.172-0.712-0.452-1.4-0.828-2.048
	c-0.172-0.716-0.452-1.404-0.828-2.056c-0.18-0.712-0.452-1.396-0.828-2.048c-0.18-0.712-0.452-1.4-0.828-2.048
	c-0.18-0.716-0.452-1.4-0.828-2.052c-0.18-0.708-0.452-1.392-0.828-2.04c-0.172-0.716-0.448-1.404-0.828-2.06
	c-0.18-0.716-0.452-1.404-0.828-2.052c-0.18-0.712-0.452-1.396-0.828-2.048c-0.18-0.712-0.452-1.4-0.828-2.048
	c-0.18-0.712-0.452-1.396-0.828-2.044c-0.18-0.72-0.456-1.408-0.832-2.06c-0.172-0.708-0.452-1.392-0.824-2.04
	c-0.176-0.716-0.456-1.404-0.832-2.06c-0.176-0.716-0.452-1.404-0.828-2.052c-0.176-0.712-0.452-1.396-0.828-2.048
	c-0.176-0.712-0.452-1.4-0.828-2.048c-0.176-0.712-0.452-1.4-0.828-2.048c-0.176-0.716-0.448-1.404-0.828-2.052
	c-0.176-0.712-0.448-1.396-0.828-2.048c-0.172-0.708-0.448-1.392-0.824-2.036c-0.176-0.716-0.452-1.412-0.832-2.068
	c-0.176-0.712-0.448-1.396-0.828-2.048c-0.176-0.712-0.448-1.4-0.828-2.048c-0.176-0.712-0.448-1.4-0.828-2.048
	c-0.176-0.716-0.448-1.404-0.824-2.052c-0.18-0.712-0.452-1.396-0.828-2.048c-0.172-0.708-0.452-1.392-0.828-2.04
	c-0.172-0.72-0.452-1.408-0.828-2.064c-0.18-0.712-0.452-1.4-0.828-2.048c-0.18-0.712-0.452-1.396-0.828-2.044
	c-0.18-0.716-0.46-1.408-0.836-2.056c-0.172-0.716-0.452-1.404-0.828-2.052c-0.172-0.712-0.448-1.396-0.828-2.048
	c-0.172-0.708-0.448-1.392-0.82-2.04c-0.18-0.72-0.452-1.408-0.836-2.064c-0.172-0.712-0.448-1.4-0.828-2.048
	c-0.172-0.712-0.448-1.396-0.828-2.048c-0.172-0.712-0.448-1.404-0.828-2.048c-0.172-0.716-0.448-1.4-0.828-2.052
	c-0.172-0.712-0.448-1.4-0.824-2.048c-0.176-0.708-0.452-1.388-0.824-2.036c-0.176-0.72-0.456-1.412-0.832-2.068
	c-0.176-0.712-0.452-1.4-0.828-2.048c-0.176-0.712-0.452-1.396-0.828-2.048c-0.176-0.712-0.452-1.404-0.828-2.048
	c-0.176-0.716-0.452-1.4-0.828-2.052c-0.176-0.712-0.452-1.4-0.828-2.048c-0.176-0.708-0.448-1.392-0.824-2.04
	c-0.176-0.72-0.452-1.408-0.832-2.064c-0.176-0.712-0.448-1.396-0.828-2.048c-0.176-0.712-0.448-1.396-0.828-2.048
	c-0.176-0.712-0.456-1.404-0.832-2.056c-0.176-0.712-0.452-1.396-0.828-2.048c-0.176-0.712-0.452-1.4-0.828-2.048
	c-0.176-0.712-0.452-1.396-0.828-2.048c-0.172-0.712-0.452-1.396-0.82-2.044c-0.18-0.716-0.46-1.404-0.836-2.06
	c-0.176-0.712-0.452-1.4-0.828-2.048c-0.336-1.364-1.008-2.668-2.08-3.74c-3.124-3.12-8.188-3.12-11.312,0l-195.656,195.78
	c-20.328-14.856-49.052-13.172-67.4,5.176c-15.48,15.48-19.1,38.348-10.948,57.332c0.26,0.688,0.536,1.368,0.828,2.052
	c0.26,0.68,0.532,1.356,0.82,2.032c0.264,0.696,0.54,1.384,0.832,2.068c0.26,0.688,0.536,1.368,0.828,2.048
	c0.26,0.692,0.536,1.372,0.828,2.052c0.26,0.688,0.536,1.368,0.828,2.048c0.26,0.684,0.536,1.364,0.828,2.044
	c0.26,0.692,0.536,1.376,0.832,2.06c0.26,0.688,0.536,1.368,0.828,2.048c0.26,0.68,0.532,1.356,0.82,2.032
	c0.264,0.692,0.54,1.38,0.832,2.068c0.26,0.692,0.536,1.372,0.828,2.052c0.26,0.688,0.536,1.368,0.828,2.048
	c0.26,0.688,0.536,1.368,0.828,2.048c0.26,0.688,0.536,1.372,0.828,2.052c0.26,0.688,0.536,1.368,0.828,2.048
	c0.256,0.68,0.528,1.356,0.82,2.024c0.264,0.696,0.54,1.388,0.836,2.076c0.26,0.692,0.536,1.372,0.828,2.052
	c0.26,0.688,0.536,1.368,0.828,2.048c0.26,0.688,0.536,1.368,0.828,2.048c0.26,0.688,0.536,1.372,0.828,2.052
	c0.26,0.688,0.536,1.368,0.828,2.048c0.26,0.68,0.532,1.356,0.82,2.032c0.264,0.696,0.54,1.384,0.832,2.068
	c0.26,0.692,0.536,1.372,0.828,2.052c0.26,0.688,0.536,1.368,0.828,2.048c0.26,0.684,0.536,1.364,0.828,2.044
	c0.26,0.692,0.536,1.38,0.832,2.06c0.26,0.688,0.536,1.368,0.828,2.048c0.26,0.68,0.532,1.356,0.82,2.032
	c0.264,0.696,0.54,1.384,0.832,2.072c0.26,0.688,0.536,1.368,0.828,2.048c0.26,0.688,0.536,1.368,0.828,2.048
	c0.26,0.688,0.536,1.368,0.828,2.048c0.26,0.688,0.536,1.372,0.828,2.052c0.26,0.688,0.536,1.368,0.828,2.048
	c0.256,0.68,0.528,1.352,0.82,2.024c0.264,0.696,0.54,1.388,0.836,2.08c0.26,0.688,0.536,1.368,0.828,2.048
	c0.26,0.688,0.536,1.368,0.828,2.048c0.26,0.688,0.536,1.368,0.828,2.048c0.26,0.688,0.536,1.372,0.828,2.052
	c0.26,0.688,0.536,1.368,0.828,2.048c0.26,0.688,0.536,1.368,0.828,2.048c0.26,0.68,0.532,1.356,0.82,2.032
	c0.264,0.7,0.54,1.388,0.832,2.072c0.26,0.684,0.536,1.364,0.828,2.044c0.26,0.692,0.536,1.376,0.832,2.056
	c0.26,0.692,0.536,1.372,0.828,2.052c0.26,0.688,0.536,1.368,0.828,2.048c0.26,0.688,0.536,1.368,0.828,2.048
	c0.26,0.68,0.532,1.356,0.82,2.032c0.264,0.7,0.54,1.388,0.832,2.072c0.26,0.688,0.536,1.368,0.828,2.048
	c0.26,0.688,0.536,1.368,0.828,2.048c0.004,0.012,0.008,0.024,0.012,0.032c30.708,13.036,64.484,20.252,99.944,20.252
	c105.752,0,196.504-64.128,235.544-155.604C491.542,356.312,491.526,356.224,491.482,356.144z"/>
<g>
	
		<rect x="330.46" y="187.687" transform="matrix(0.7072 -0.707 0.707 0.7072 -44.9093 298.9317)" style="fill:#E6A951;" width="16" height="32"/>
	
		<rect x="353.089" y="165.076" transform="matrix(0.7072 -0.707 0.707 0.7072 -22.2959 308.3091)" style="fill:#E6A951;" width="16" height="31.996"/>
	
		<rect x="375.742" y="142.404" transform="matrix(0.707 -0.7072 0.7072 0.707 0.4097 317.7959)" style="fill:#E6A951;" width="16" height="32"/>
</g>
<path style="fill:#F2B255;" d="M194.21,393.18c18.348-18.348,20.032-47.08,5.176-67.404l195.644-195.64
	c3.124-3.124,3.124-8.196,0-11.316L182.898,330.952c14.036,14.036,14.036,36.876,0,50.912c-14.036,14.036-36.876,14.036-50.912,0
	L120.67,393.18C140.946,413.456,173.934,413.456,194.21,393.18z"/>
<path style="fill:#FFD464;" d="M131.986,330.952c14.036-14.04,36.876-14.04,50.912,0L395.03,118.82
	c-3.124-3.124-8.188-3.124-11.312,0L188.074,314.464c-20.328-14.86-49.052-13.172-67.4,5.176c-20.276,20.272-20.276,53.26,0,73.54
	l11.316-11.316C117.95,367.832,117.95,344.992,131.986,330.952z"/>
<g>
</g>
<g>
</g>
<g>
</g>
<g>
</g>
<g>
</g>
<g>
</g>
<g>
</g>
<g>
</g>
<g>
</g>
<g>
</g>
<g>
</g>
<g>
</g>
<g>
</g>
<g>
</g>
<g>
</g>
</svg>
